<mxfile host="app.diagrams.net" modified="2024-04-01T06:52:25.112Z" agent="Mozilla/5.0 (Windows NT 10.0; Win64; x64; rv:124.0) Gecko/20100101 Firefox/124.0" version="24.2.1" etag="EI5orQbM-1IIAgP2v3qV" type="github">
  <diagram name="Page-1" id="fhkUmzFAbJTLwOaAY0Eb">
    <mxGraphModel>
      <root>
        <mxCell id="0" />
        <mxCell id="1" parent="0" />
      </root>
    </mxGraphModel>
  </diagram>
</mxfile>
